<svg xmlns="http://www.w3.org/2000/svg" viewBox="0 0 75.99 25.55"><defs><style>.cls-1{fill:#fff}</style></defs><g id="Capa_2" data-name="Capa 2"><g id="Capa_2-2" data-name="Capa 2"><g id="Imagen_Bird" data-name="Imagen Bird"><path d="M14.56,25.55c8.61,0,12.23-7.92,12.21-8.76a8.18,8.18,0,0,1-2.62,1.47c-.17.28-3.38,5.44-9.56,5.47-6.33,0-9.6-5.33-9.74-5.56-1.43-.31-2.52-1.6-2.53-1.38C2.3,17.6,5.66,25.55,14.56,25.55Z" class="cls-1"/><path d="M28.52,5.28A9.64,9.64,0,0,1,29,8.48a6.18,6.18,0,0,1-2.85,5.08,5.8,5.8,0,0,1-1.27.7,6.16,6.16,0,0,0,3.38-1.54.55.55,0,0,1-.13.38,8.66,8.66,0,0,1-6.06,4.59c-1.21.3-2.42.54-3.6.93a5.92,5.92,0,0,0-2.74,1.64,7,7,0,0,1-.89-2.88,7.51,7.51,0,0,1,2.86-6.47,17.23,17.23,0,0,1,2-1.49A16.54,16.54,0,0,0,25,4.31a7.45,7.45,0,0,0,1.16-3.26,7.25,7.25,0,0,1,1.25,4.28,7.3,7.3,0,0,1-1.55,4.15,6,6,0,0,0,2.57-4.11C28.41,5.31,28.42,5.23,28.52,5.28Z" class="cls-1"/><path d="M.77,12.78A6.79,6.79,0,0,0,4,14.29,7,7,0,0,1,.41,10.54,7.51,7.51,0,0,1,.56,5.28,6.46,6.46,0,0,0,3.14,9.43a7.09,7.09,0,0,1-.27-8.35c.62,3.47,2.84,5.74,5.47,7.7.7.53,1.47,1,2.17,1.48a9.19,9.19,0,0,1,3.21,3.93,7.81,7.81,0,0,1,.63,1.93,7.63,7.63,0,0,0-1.56-2.53,3.26,3.26,0,0,0-2-.75A2.15,2.15,0,0,0,8.6,14.93a.53.53,0,0,1-.35.46,1.77,1.77,0,0,0-1,.88,5.66,5.66,0,0,1,1.56.24A1.63,1.63,0,0,1,10,18.2c0,.17,0,.24-.23.19a28.17,28.17,0,0,1-5.34-1.63A8.08,8.08,0,0,1,.77,12.78Z" class="cls-1"/><path d="M22.7,5.32a11.27,11.27,0,0,0-16.38,0C6,4.9,5.72,4.48,5.4,4.08c-.14-.17-.09-.27.06-.41A12.44,12.44,0,0,1,11.23.43,12.81,12.81,0,0,1,23.52,3.62c.21.19.24.32.06.54S23,4.93,22.7,5.32Z" class="cls-1"/><path d="M10.3,15a.42.42,0,0,1-.44-.43.41.41,0,0,1,.44-.44.4.4,0,0,1,.43.4A.41.41,0,0,1,10.3,15Z" class="cls-1"/><path d="M28.52,5.28l-.14.09c0-.08-.05-.19.06-.21S28.52,5.22,28.52,5.28Z" class="cls-1"/><path d="M21.29,3.75s-.06.08-.07.08a.21.21,0,0,1-.12-.08s0-.11.06-.09S21.24,3.71,21.29,3.75Z" class="cls-1"/></g><path d="M46.32,11.27H42.68l-.59,1.84H39.68l3.54-9.5h2.57l3.54,9.5H46.92Zm-3-1.85h2.44l-1.21-4Z" class="cls-1"/><path d="M57.37,10.27a2.75,2.75,0,0,1-.25,1.18,2.79,2.79,0,0,1-.72,1,3.49,3.49,0,0,1-1.14.64,4.56,4.56,0,0,1-1.53.23,7.05,7.05,0,0,1-1.57-.17,6.21,6.21,0,0,1-1.45-.5l.47-1.78a7,7,0,0,0,1.13.42,4.89,4.89,0,0,0,1.35.18,2,2,0,0,0,1-.22.78.78,0,0,0,.38-.72.85.85,0,0,0-.33-.65,4.19,4.19,0,0,0-1.22-.62,5.48,5.48,0,0,1-2-1.21,2.4,2.4,0,0,1-.64-1.73,2.55,2.55,0,0,1,.9-2.11,3.88,3.88,0,0,1,2.5-.73,6.54,6.54,0,0,1,1.56.18A5,5,0,0,1,57,4.08l-.4,1.76a5.59,5.59,0,0,0-1.09-.39A4.91,4.91,0,0,0,54.3,5.3a1.81,1.81,0,0,0-.84.17.63.63,0,0,0-.33.61.86.86,0,0,0,.06.34.66.66,0,0,0,.21.27,1.6,1.6,0,0,0,.42.26c.18.09.41.19.68.3s.78.33,1.13.51a3.86,3.86,0,0,1,.91.63,2.79,2.79,0,0,1,.61.81A2.44,2.44,0,0,1,57.37,10.27Z" class="cls-1"/><path d="M66.13,3.61V5.47H63.58v7.64H61.24V5.47H58.68V3.61Z" class="cls-1"/><path d="M73.65,3.61H76V9.69a3.38,3.38,0,0,1-1.07,2.64,5.09,5.09,0,0,1-5.92,0,3.37,3.37,0,0,1-1.06-2.64V3.61h2.34V9.76A1.66,1.66,0,0,0,70.71,11a1.66,1.66,0,0,0,1.25.43A1.7,1.7,0,0,0,73.22,11a1.7,1.7,0,0,0,.43-1.24Z" class="cls-1"/><path d="M31,19.56a.16.16,0,0,1-.11,0,.15.15,0,0,1,0-.11V16.24H29.71a.14.14,0,0,1-.11,0,.15.15,0,0,1,0-.11v-.65a.14.14,0,0,1,.15-.15H33a.15.15,0,0,1,.11,0,.14.14,0,0,1,0,.11v.65a.15.15,0,0,1,0,.11.16.16,0,0,1-.11,0H31.91V19.4a.15.15,0,0,1,0,.11.16.16,0,0,1-.11,0Z" class="cls-1"/><path d="M33.78,19.56a.16.16,0,0,1-.11,0,.15.15,0,0,1,0-.11V16.53a.14.14,0,0,1,.15-.15h.7a.16.16,0,0,1,.12,0,.15.15,0,0,1,0,.11v.24a1.14,1.14,0,0,1,.91-.39h.27a.15.15,0,0,1,.11,0,.21.21,0,0,1,0,.11v.63a.21.21,0,0,1,0,.11.15.15,0,0,1-.11,0h-.6a.52.52,0,0,0-.38.14.49.49,0,0,0-.14.39V19.4a.17.17,0,0,1-.16.16Z" class="cls-1"/><path d="M37.61,19.62a1.25,1.25,0,0,1-.59-.13,1,1,0,0,1-.41-.34.75.75,0,0,1-.16-.48.8.8,0,0,1,.36-.69,2.12,2.12,0,0,1,.94-.34l.76-.12v-.09a.54.54,0,0,0-.09-.33.4.4,0,0,0-.34-.12.45.45,0,0,0-.27.07.49.49,0,0,0-.17.18.17.17,0,0,1-.15.08H36.8a.12.12,0,0,1-.1,0,.08.08,0,0,1,0-.09.48.48,0,0,1,.08-.26,1.05,1.05,0,0,1,.25-.28,1.52,1.52,0,0,1,.44-.23,2.1,2.1,0,0,1,.66-.09,2.22,2.22,0,0,1,.67.09,1.19,1.19,0,0,1,.46.25,1,1,0,0,1,.26.39,1.57,1.57,0,0,1,.08.49V19.4a.13.13,0,0,1,0,.11.14.14,0,0,1-.1,0h-.71a.14.14,0,0,1-.11,0,.15.15,0,0,1,0-.11v-.21a.88.88,0,0,1-.22.21,1,1,0,0,1-.31.16A1.33,1.33,0,0,1,37.61,19.62Zm.29-.7a.72.72,0,0,0,.32-.08.54.54,0,0,0,.22-.23.86.86,0,0,0,.09-.41v-.09l-.52.1a1,1,0,0,0-.42.14.3.3,0,0,0-.13.24.28.28,0,0,0,.06.18.38.38,0,0,0,.16.11A.54.54,0,0,0,37.9,18.92Z" class="cls-1"/><path d="M41.61,19.56a.18.18,0,0,1-.14,0,.41.41,0,0,1-.07-.11l-1.16-2.83a.13.13,0,0,1,0-.06.1.1,0,0,1,0-.09.13.13,0,0,1,.1,0h.69a.16.16,0,0,1,.12,0,.33.33,0,0,1,.06.08l.69,1.88.7-1.88a.15.15,0,0,1,0-.08.16.16,0,0,1,.12,0h.69a.13.13,0,0,1,.1,0,.11.11,0,0,1,0,.09.14.14,0,0,1,0,.06L42.47,19.4a.41.41,0,0,1-.07.11.21.21,0,0,1-.15,0Z" class="cls-1"/><path d="M45.76,19.62a1.65,1.65,0,0,1-1.15-.39,1.58,1.58,0,0,1-.44-1.17v-.21a1.79,1.79,0,0,1,.21-.83,1.37,1.37,0,0,1,.55-.52,1.81,1.81,0,0,1,.83-.18,1.75,1.75,0,0,1,.89.21,1.32,1.32,0,0,1,.52.58,1.89,1.89,0,0,1,.18.84v.14a.16.16,0,0,1,0,.12.21.21,0,0,1-.11,0h-2v0a1,1,0,0,0,.07.32.53.53,0,0,0,.17.24.49.49,0,0,0,.28.08.4.4,0,0,0,.2,0,.34.34,0,0,0,.14-.09.32.32,0,0,0,.08-.09l.09-.08.11,0h.76a.18.18,0,0,1,.1,0,.1.1,0,0,1,0,.1.54.54,0,0,1-.1.25,1.32,1.32,0,0,1-.29.29,1.66,1.66,0,0,1-.46.24A2.19,2.19,0,0,1,45.76,19.62Zm-.52-2h1a.86.86,0,0,0-.06-.34.47.47,0,0,0-.18-.23.53.53,0,0,0-.56,0,.53.53,0,0,0-.18.23.86.86,0,0,0-.06.34Z" class="cls-1"/><path d="M48.39,19.56a.13.13,0,0,1-.11,0,.16.16,0,0,1-.05-.11v-4a.14.14,0,0,1,.05-.11.12.12,0,0,1,.11,0h.72a.15.15,0,0,1,.11,0,.18.18,0,0,1,0,.11v4a.21.21,0,0,1,0,.11.16.16,0,0,1-.11,0Z" class="cls-1"/><path d="M51.56,19.56a.12.12,0,0,1-.08,0,.12.12,0,0,1,0-.09v-.06l1.44-3.92a.24.24,0,0,1,.07-.12.23.23,0,0,1,.17-.05H54a.21.21,0,0,1,.16.05.2.2,0,0,1,.08.12l1.43,3.92a.13.13,0,0,1,0,.06.12.12,0,0,1,0,.09.15.15,0,0,1-.09,0h-.75a.18.18,0,0,1-.14,0,.33.33,0,0,1-.06-.08l-.24-.63H52.75l-.23.63a.33.33,0,0,1-.06.08.2.2,0,0,1-.14,0ZM53,17.92h1.14l-.57-1.61Z" class="cls-1"/><path d="M57.94,20.9a2.21,2.21,0,0,1-.78-.12,1.36,1.36,0,0,1-.49-.3,1.07,1.07,0,0,1-.26-.33.83.83,0,0,1-.08-.27.12.12,0,0,1,0-.11.16.16,0,0,1,.11-.05h.78a.17.17,0,0,1,.1,0,.29.29,0,0,1,.06.1.8.8,0,0,0,.09.14.58.58,0,0,0,.14.12.62.62,0,0,0,.26,0,.67.67,0,0,0,.3,0,.35.35,0,0,0,.19-.19.88.88,0,0,0,.06-.35v-.41a1.13,1.13,0,0,1-.36.24,1.25,1.25,0,0,1-.53.1A1.55,1.55,0,0,1,57,19.4a1,1,0,0,1-.4-.28,1.26,1.26,0,0,1-.25-.44,2.66,2.66,0,0,1-.11-.61v-.32a2.48,2.48,0,0,1,.11-.59,1.36,1.36,0,0,1,.25-.46,1,1,0,0,1,.4-.28,1.35,1.35,0,0,1,.55-.1,1.19,1.19,0,0,1,.56.12,1.12,1.12,0,0,1,.39.32v-.23a.14.14,0,0,1,.15-.15h.71a.14.14,0,0,1,.15.15v2.94a1.55,1.55,0,0,1-.18.78,1.25,1.25,0,0,1-.55.49A2,2,0,0,1,57.94,20.9Zm0-2.21a.49.49,0,0,0,.31-.08.5.5,0,0,0,.19-.22,1.36,1.36,0,0,0,.06-.29s0-.11,0-.19,0-.14,0-.18a1.33,1.33,0,0,0-.06-.3.43.43,0,0,0-.19-.21.5.5,0,0,0-.31-.09.49.49,0,0,0-.32.09.58.58,0,0,0-.18.23,1.61,1.61,0,0,0-.06.33v.27a1.61,1.61,0,0,0,.06.33.58.58,0,0,0,.18.23A.49.49,0,0,0,57.9,18.69Z" class="cls-1"/><path d="M62,19.62a1.64,1.64,0,0,1-1.15-.39,1.59,1.59,0,0,1-.45-1.17v-.21a1.92,1.92,0,0,1,.22-.83,1.31,1.31,0,0,1,.55-.52,1.8,1.8,0,0,1,.82-.18,1.7,1.7,0,0,1,.89.21,1.35,1.35,0,0,1,.53.58,1.89,1.89,0,0,1,.18.84v.14a.21.21,0,0,1,0,.12.21.21,0,0,1-.11,0h-2v0a.79.79,0,0,0,.06.32.61.61,0,0,0,.17.24.51.51,0,0,0,.28.08.46.46,0,0,0,.21,0,.3.3,0,0,0,.13-.09l.09-.09.09-.08.11,0h.75a.18.18,0,0,1,.11,0,.17.17,0,0,1,0,.1.68.68,0,0,1-.1.25,1.32,1.32,0,0,1-.29.29,1.59,1.59,0,0,1-.47.24A2.08,2.08,0,0,1,62,19.62Zm-.52-2h1a.86.86,0,0,0-.06-.34.4.4,0,0,0-.17-.23A.55.55,0,0,0,62,17a.48.48,0,0,0-.27.08.47.47,0,0,0-.18.23.86.86,0,0,0-.06.34Z" class="cls-1"/><path d="M64.65,19.56a.16.16,0,0,1-.11,0,.15.15,0,0,1,0-.11V16.53a.14.14,0,0,1,.15-.15h.7a.16.16,0,0,1,.12,0,.15.15,0,0,1,0,.11v.23a1.36,1.36,0,0,1,.41-.32,1.44,1.44,0,0,1,.61-.12,1.26,1.26,0,0,1,.62.15,1.09,1.09,0,0,1,.43.47,1.58,1.58,0,0,1,.16.76v1.7a.21.21,0,0,1,0,.11.16.16,0,0,1-.11,0h-.77a.14.14,0,0,1-.11,0,.16.16,0,0,1,0-.11V17.73a.64.64,0,0,0-.13-.44.55.55,0,0,0-.41-.16.54.54,0,0,0-.4.16.6.6,0,0,0-.15.44V19.4a.16.16,0,0,1,0,.11.14.14,0,0,1-.1,0Z" class="cls-1"/><path d="M70.2,19.62a1.89,1.89,0,0,1-.81-.17,1.35,1.35,0,0,1-.55-.48,1.41,1.41,0,0,1-.22-.75,3.13,3.13,0,0,1,0-.5,1.42,1.42,0,0,1,.22-.76,1.29,1.29,0,0,1,.55-.48,1.89,1.89,0,0,1,.81-.16,2.18,2.18,0,0,1,.72.11,1.57,1.57,0,0,1,.49.3,1.47,1.47,0,0,1,.28.36.86.86,0,0,1,.1.33.15.15,0,0,1,0,.11.16.16,0,0,1-.11,0h-.78a.12.12,0,0,1-.1,0,.22.22,0,0,1-.07-.09.62.62,0,0,0-.19-.27.5.5,0,0,0-.29-.08.47.47,0,0,0-.37.16.81.81,0,0,0-.15.49v.44a1,1,0,0,0,.15.49.47.47,0,0,0,.37.15.51.51,0,0,0,.3-.08.54.54,0,0,0,.18-.27.22.22,0,0,1,.07-.09.15.15,0,0,1,.1,0h.78a.14.14,0,0,1,.15.15.6.6,0,0,1-.06.24,1.28,1.28,0,0,1-.17.29,1.35,1.35,0,0,1-.3.28,1.55,1.55,0,0,1-.45.21A1.91,1.91,0,0,1,70.2,19.62Z" class="cls-1"/><path d="M73.13,20.72a.14.14,0,0,1-.13-.13v0s0,0,0,0l.48-1.15-1.18-2.77a.31.31,0,0,1,0-.08.19.19,0,0,1,0-.09.12.12,0,0,1,.09,0h.7a.16.16,0,0,1,.12,0,.16.16,0,0,1,.06.08l.7,1.78.71-1.78.06-.08a.16.16,0,0,1,.12,0h.69a.1.1,0,0,1,.09,0,.09.09,0,0,1,0,.08.16.16,0,0,1,0,.09l-1.72,4-.07.09a.19.19,0,0,1-.12,0Z" class="cls-1"/></g></g></svg>